<svg xmlns="http://www.w3.org/2000/svg" width="240" height="240" viewBox="0 0 240 240"><rect x="120" y="144" width="24" height="24" style="fill:none"/><path d="M132,164.45a4.07,4.07,0,0,1-2.53-.95,3.61,3.61,0,0,0-1.39-.71,7.32,7.32,0,0,0-2.11.11.27.27,0,0,1-.29-.21c-.18-.75-.23-1-.36-1-1.32-.21-2.13-.51-2.29-.88s0-.33.15-.33a4.75,4.75,0,0,0,2.82-1.69,6,6,0,0,0,1-1.49,1,1,0,0,0,.1-.82c-.17-.41-.75-.59-1.38-.8-.34-.13-.89-.41-.82-.8s.43-.48,1-.44a2.24,2.24,0,0,0,.92.24.72.72,0,0,0,.52-.16,10.55,10.55,0,0,1,.19-4.16,5.09,5.09,0,0,1,9.12,0,10.55,10.55,0,0,1,.19,4.16.72.72,0,0,0,.52.16,2.24,2.24,0,0,0,.92-.24c.52,0,.89.16.95.44s-.48.67-.82.8c-.63.21-1.21.39-1.38.8a1,1,0,0,0,.1.82,6,6,0,0,0,1,1.49,4.75,4.75,0,0,0,2.82,1.69c.11,0,.18.1.15.33s-1,.67-2.29.88c-.13,0-.18.23-.36,1a.27.27,0,0,1-.29.21,7.32,7.32,0,0,0-2.11-.11,3.61,3.61,0,0,0-1.39.71A4.07,4.07,0,0,1,132,164.45Z"/><rect x="96" y="144" width="24" height="24" style="fill:none"/><path d="M100.06,157.39a4.43,4.43,0,0,1,1.79-2.36,2.7,2.7,0,0,1,.35-1.53,1.19,1.19,0,0,1,.15-.7c.13-3.24,2.24-5.8,5.65-5.8s5.52,2.56,5.65,5.8a1.19,1.19,0,0,1,.15.7,2.7,2.7,0,0,1,.35,1.53,4.43,4.43,0,0,1,1.79,2.37c.67,1.58.78,3.1.24,3.37-.37.18-1-.27-1.5-1.06a4.53,4.53,0,0,1-1.52,2.33c.81.3,1.33.78,1.33,1.33,0,.9-1.42,1.63-3.17,1.63-1.58,0-2.87-.59-3.13-1.35h-.38c-.26.76-1.55,1.35-3.13,1.35-1.75,0-3.17-.73-3.17-1.63,0-.55.52-1,1.33-1.33a4.53,4.53,0,0,1-1.52-2.33c-.55.79-1.13,1.24-1.5,1.06C99.28,160.5,99.39,159,100.06,157.39Z"/><rect x="24" y="144" width="24" height="24" style="fill:none"/><path d="M42,150a8.43,8.43,0,0,1,2.36,7.55A4.94,4.94,0,0,1,45,160a5,5,0,0,1-5,5,4.94,4.94,0,0,1-2.45-.64,8.53,8.53,0,0,1-9.91-9.91A4.94,4.94,0,0,1,27,152a5,5,0,0,1,5-5,4.94,4.94,0,0,1,2.45.64A8.43,8.43,0,0,1,42,150m-6,11.16c2.87,0,4.3-1.38,4.3-3.24,0-1.19-.56-2.46-2.73-2.95l-2-.44c-.76-.17-1.62-.4-1.62-1.11s.6-1.22,1.7-1.22c2.23,0,2,1.53,3.13,1.53a1,1,0,0,0,1.08-.93c0-1.37-2.19-2.4-4-2.4s-4.16.86-4.16,3.14c0,1.1.39,2.27,2.55,2.81l2.69.68c.81.2,1,.65,1,1.07,0,.68-.68,1.35-1.91,1.35-2.41,0-2.08-1.85-3.37-1.85a1,1,0,0,0-1,1C31.67,159.68,33,161.16,36,161.16Z"/><rect x="168" y="120" width="24" height="24" style="fill:none"/><path d="M184.75,134c.25.13.41.2.46.3a2,2,0,0,1-.21,1.18,2.44,2.44,0,0,1-1.7,1.12c-.46,0-.47.36-3-.73a10.24,10.24,0,0,1-4.11-3.92,4.85,4.85,0,0,1-.92-2.61,2.73,2.73,0,0,1,.95-2,.75.75,0,0,1,.68-.26h.47c.15,0,.36-.06.55.45l.69,1.87a.46.46,0,0,1,0,.44l-.27.41-.39.42c-.12.12-.26.25-.12.5a7.42,7.42,0,0,0,1.32,1.78,6.61,6.61,0,0,0,2,1.3c.24.14.39.12.54,0l.81-.94c.19-.25.35-.19.58-.11l1.67.88M180,122a10,10,0,1,1-5.35,18.45L170,142l1.55-4.65A10,10,0,0,1,180,122m0,2a8,8,0,0,0-6.54,12.61l-1,2.89,2.89-1A8,8,0,1,0,180,124Z"/><rect x="96" y="120" width="24" height="24" style="fill:none"/><path d="M116.47,134.65a5.66,5.66,0,0,1-.64,2.45c-.43.75-.75,1-1.39,1s-2.13-2.24-3.08-2.34c-1.18,0-3.63,2.45-5.65,2.45a3.1,3.1,0,0,1-1.92-.43,2.08,2.08,0,0,1-.85-1.92,3.19,3.19,0,0,1,3.3-3c2.35,0,3.94,2.34,5.12,2.24,1,0,2.87-1.92,3.83-1.92,1-.21,1.28.84,1.28,1.49m-3.84-9.37c-1.06-.64-2-1-3.09-1.6a14.69,14.69,0,0,1-2.23-2.24c-.31,1.39-.53,1.92-1.07,2.35a13.69,13.69,0,0,1-2.55,1.49A8.89,8.89,0,0,0,108.05,142a8.67,8.67,0,0,0,9-8.73A8.86,8.86,0,0,0,112.63,125.28Z"/><rect x="72" y="120" width="24" height="24" style="fill:none"/><path d="M89.36,140.2v-5.38h1.79V142H75v-7.18h1.8v5.38H89.36m-10.59-5.88.37-1.76,8.79,1.85-.37,1.76-8.79-1.85m1.16-4.21.76-1.61,8.14,3.78-.76,1.62-8.14-3.79m2.26-4,1.15-1.38,6.9,5.76-1.15,1.37-6.9-5.75m4.45-4.25L92,129.08l-1.44,1.07-5.36-7.21,1.44-1.07m-8,16.54v-1.8h9v1.8Z"/><rect x="48" y="120" width="24" height="24" style="fill:none"/><path d="M52,134v-3H68v3H52m0-4v-3H68v3H52m13.46-8A2.59,2.59,0,0,1,68,124.63V126H52v-1.37A2.59,2.59,0,0,1,54.54,122H65.46M52,135H68v1.35A2.6,2.6,0,0,1,65.46,139h-1L61,142v-3H54.54A2.6,2.6,0,0,1,52,136.35Z"/><rect x="192" y="96" width="24" height="24" style="fill:none"/><path d="M209.9,106.9c-3.2-1.9-8.55-2.1-11.6-1.15a.92.92,0,0,1-.55-1.75c3.55-1,9.4-.85,13.1,1.35a1,1,0,0,1,.35,1.3,1,1,0,0,1-1.3.25m-.1,2.8a.75.75,0,0,1-1.05.25,13,13,0,0,0-9.95-1.15.76.76,0,0,1-.45-1.45,14.63,14.63,0,0,1,11.25,1.35.71.71,0,0,1,.2,1m-1.2,2.75a.59.59,0,0,1-.85.2c-2.35-1.45-5.3-1.75-8.8-1a.62.62,0,0,1-.3-1.2c3.8-.85,7.1-.5,9.7,1.1a.6.6,0,0,1,.25.85M204,98a10,10,0,1,0,10,10A10,10,0,0,0,204,98Z"/><rect x="168" y="96" width="24" height="24" style="fill:none"/><path d="M179.6,105.19v7.39h8a2.34,2.34,0,0,0,2.44-2.43,2.37,2.37,0,0,0-2.38-2.43,2.43,2.43,0,0,0-.94.2,4.26,4.26,0,0,0-4.25-3.79,4.3,4.3,0,0,0-2.83,1.06m-.8.92a2.7,2.7,0,0,0-.88-.35v6.82h1.26v-7c-.13.15-.26.33-.38.5m-2.14-.49v7h.84v-6.93a3.08,3.08,0,0,0-.53,0h-.31m-1.66.59v6.37h.83V105.8a3.38,3.38,0,0,0-.83.41m-1.52,2.28s-.11-.06-.17-.09v4.18h.84V107a3.42,3.42,0,0,0-.67,1.49m-1.85-.26v4.27a2.55,2.55,0,0,0,.64.08h.2v-4.42l-.2,0a2.53,2.53,0,0,0-.64.09M170,110.36a2.21,2.21,0,0,0,.79,1.69v-3.37A2.19,2.19,0,0,0,170,110.36Z"/><rect x="96" y="96" width="24" height="24" style="fill:none"/><path d="M115,99H101a2,2,0,0,0-2,2v14a2,2,0,0,0,2,2h14a2,2,0,0,0,2-2V101A2,2,0,0,0,115,99Zm-11,12.15A3.15,3.15,0,1,1,107.1,108,3.15,3.15,0,0,1,104,111.15Zm8.1,0A3.15,3.15,0,1,1,115.2,108,3.15,3.15,0,0,1,112.05,111.15Z"/><rect x="72" y="96" width="24" height="24" style="fill:none"/><path d="M82.42,113.42a8.42,8.42,0,0,1-.72-3.19,23.1,23.1,0,0,0-1.63,3.07.61.61,0,0,0,0,.12c-.12.32-.25.57-.32.79a.5.5,0,0,0,.29.65l.8.29.12,0a21.84,21.84,0,0,0,3.34.84,8.31,8.31,0,0,1-1.83-2.62m1.73-8.14c-2.52-5.17-8.16-5-9.05-2.67-.7,1.78,2.3,6,9.17,2.94h0s-.09-.22-.12-.27m1.19-.34c-1.41-3.49,1.06-5.5,2.4-5,1,.4,1.56,3.39-2.33,5.12h0a.46.46,0,0,0-.07-.14m7.22,3.93a5.06,5.06,0,0,0-2.92-2.72,1,1,0,0,0-.39-.08,1.39,1.39,0,0,0-1.34,1.22,6.8,6.8,0,0,0,.62,3.39,7.28,7.28,0,0,0,2,2.69,1.33,1.33,0,0,0,.79.25,1.3,1.3,0,0,0,1.22-.74,5,5,0,0,0,0-4m-2.94,5.81a8.84,8.84,0,0,1-3.29-7.49,2.61,2.61,0,0,1,.32-1.09l-.1,0h0a1.09,1.09,0,0,1-.17,0,5.37,5.37,0,0,0-1.07.45l-.49.3a3.67,3.67,0,0,0-1.63,2.59,6.85,6.85,0,0,0,2.57,5.94,3.8,3.8,0,0,0,2.2.67,4.81,4.81,0,0,0,2.45-.77,0,0,0,0,0,0,0,1.3,1.3,0,0,1,.15-.1s0,0,.08,0a2.88,2.88,0,0,1-1-.5"/><rect x="48" y="96" width="24" height="24" style="fill:none"/><path d="M65,101l-.43,2.5a.78.78,0,0,1-.66.5H60c-.47,0-1,.32-1,.79v.41c0,.47.58.8,1,.8h3.28a.63.63,0,0,1,.58.71c-.07.36-.92,2.57-1,2.79a.7.7,0,0,1-.65.5H59.37a1,1,0,0,0-1,.5c-.34.44-3.07,3.6-3.07,3.6S55,114,55,114V101c0-.3.61-1,1-1h8.5c.32,0,.58.61.5,1m0,9.45c.11-.48,1.78-7.73,2.22-9.9M65.58,98H54.91A1.77,1.77,0,0,0,53,99.8v17a1.14,1.14,0,0,0,.66,1.17,1.2,1.2,0,0,0,1.28-.27s4.71-5.44,4.8-5.53.13-.13.26-.13h3.26A1.68,1.68,0,0,0,65,110.45c.11-.48,1.78-7.73,2.22-9.9C67.56,98.89,67.14,98,65.58,98Z"/><rect x="24" y="96" width="24" height="24" style="fill:none"/><path d="M36.08,118a9.84,9.84,0,0,1-6.42-2.37l-4.25.58,1.64-4.06a10.35,10.35,0,0,1-.89-4.15,9.92,9.92,0,1,1,9.92,10m5.42-10v0c0-2.88-2-4.94-5.55-4.94H32.16v10H35.9c3.53,0,5.6-2.14,5.6-5M36,110.54H34.89v-5.08H36A2.43,2.43,0,0,1,38.7,108h0A2.42,2.42,0,0,1,36,110.54Z"/><rect x="216" y="72" width="24" height="24" style="fill:none"/><path d="M231.09,83.63s.19-1.28.91-1.28,1.78,1.71,1.78,1.71-2.32-.43-2.69-.43M235,76.69a5,5,0,0,0-3.11-1.28H229.5A3.08,3.08,0,0,0,226.88,74c-1.83,0-1.71.81-1.71,1.5v2.82l-.83.87H220.5a2.78,2.78,0,0,0-1.06,2.25c0,1.56.48,6.91,3.69,7.41,3.8.58,4.45-1.18,4.45-1.39,0-.9,0-2.25,0-2.25s1.11,2.12,2.79,2.12,2.65,1,2.65,2v1.84s0,1.15-1,1.15h-2.11A1.86,1.86,0,0,1,229.2,91c0-.75.33-1,.73-1a6.7,6.7,0,0,1,.72,0V88.53s-3.18,0-3.18,2.41a2.77,2.77,0,0,0,3,3.06h2.17s3.93-.5,3.93-8.25-1.23-8.47-1.56-9.06m-11.5,1.62h-3.24l4.06-4.09V77.5Z"/><rect x="192" y="72" width="24" height="24" style="fill:none"/><path d="M204,74.06a10,10,0,0,0-4,.81l-2.19-2.18h0a10,10,0,0,0-5.16,5.19l2.19,2.19a10,10,0,0,1,5.17-5.19h0L208.18,83h0a10.06,10.06,0,0,0-5.17,5.2l-8.11-8.09h0a9.81,9.81,0,0,0-.84,4,10,10,0,1,0,10-10Zm1.73,14.7a5.82,5.82,0,0,1,3-3l.78,3.8Z"/><rect x="120" y="72" width="24" height="24" style="fill:none"/><path d="M133.49,85.49h-.89V82.81h.89Zm-7.46,0h.89V82.81H126ZM141,77V91a2,2,0,0,1-2,2H125a2,2,0,0,1-2-2V77a2,2,0,0,1,2-2h14A2,2,0,0,1,141,77Zm-12.58,2.52h-1.5v2.09h-2.39v5.08h3.89Zm2.09,2.09H129v5.08h1.5Zm0-2.09H129V81h1.5ZM135,81.61H131.1v5.08h2.39v.6H131.1v1.19H135Zm4.48,0h-3.89v5.08H138v.6h-2.39v1.19h3.89Zm-1.5,1.2h-.89v2.68H138Z"/><rect x="96" y="72" width="24" height="24" style="fill:none"/><path d="M100.8,75H117V85.8l-4.5,4.5h-3.6L106.2,93h-2.7V90.3H99V78.6l1.8-3.6m14.4,9.9V76.8H102.6V87.6h2.7v2.7l2.7-2.7h4.5l2.7-2.7m-4.5-5.4h1.8V84h-1.8V79.5m-2.7,0V84h-1.8V79.5Z"/><rect x="216" y="48" width="24" height="24" style="fill:none"/><path d="M221,51h14a2,2,0,0,1,2,2V67a2,2,0,0,1-2,2H221a2,2,0,0,1-2-2V53a2,2,0,0,1,2-2m10.09,13.5a27.32,27.32,0,0,0-1-3.68l1.12-.08h0a9.44,9.44,0,0,1,2.14.26,5.49,5.49,0,0,1-2.27,3.5m-3.09,1a5.43,5.43,0,0,1-3.24-1.07A8,8,0,0,1,226,62.78a7.62,7.62,0,0,1,2.86-1.72,26.54,26.54,0,0,1,1.08,4,5.48,5.48,0,0,1-1.94.36M222.54,60v-.08h.6a17.07,17.07,0,0,0,5-.71l.31.72a8.62,8.62,0,0,0-3.07,1.82,9.91,9.91,0,0,0-1.51,1.74,5.38,5.38,0,0,1-1.29-3.5m3.05-4.89a16.64,16.64,0,0,1,1.95,3,15.8,15.8,0,0,1-4.32.6h-.52a5.47,5.47,0,0,1,2.89-3.57m2.41-.57a5.5,5.5,0,0,1,3.41,1.2,7.15,7.15,0,0,1-2.69,1.92,19.89,19.89,0,0,0-1.88-3,5.5,5.5,0,0,1,1.16-.13m4.29,2.09a5.41,5.41,0,0,1,1.16,3.11,11.23,11.23,0,0,0-2.23-.24h0a9,9,0,0,0-1.59.13l-.36-.85a8.48,8.48,0,0,0,3-2.15M228,53a7,7,0,1,0,7,7A7,7,0,0,0,228,53Z"/><rect x="192" y="48" width="24" height="24" style="fill:none"/><path d="M208.42,66.37c-.42-1.92-.92-3.69-1.42-5.25a11.09,11.09,0,0,1,1.58-.11h0a14,14,0,0,1,3.06.37,7.79,7.79,0,0,1-3.24,5M204,67.75a7.72,7.72,0,0,1-4.64-1.54A11.36,11.36,0,0,1,201.18,64a10.66,10.66,0,0,1,4-2.46,39.31,39.31,0,0,1,1.54,5.71,7.62,7.62,0,0,1-2.77.51M196.2,60v-.11h.86a24.75,24.75,0,0,0,7.08-1c.15.33.3.67.45,1a12.52,12.52,0,0,0-4.4,2.58A14.68,14.68,0,0,0,198,65a7.7,7.7,0,0,1-1.84-5m4.35-7a24.3,24.3,0,0,1,2.79,4.25,22.19,22.19,0,0,1-6.16.87h-.75A7.8,7.8,0,0,1,200.55,53m3.45-.8a7.73,7.73,0,0,1,4.86,1.71A10.21,10.21,0,0,1,205,56.6a29.66,29.66,0,0,0-2.69-4.27,8.27,8.27,0,0,1,1.66-.18m6.13,3a7.82,7.82,0,0,1,1.66,4.45,15.32,15.32,0,0,0-3.19-.35h0a13.5,13.5,0,0,0-2.26.19c-.17-.42-.33-.82-.52-1.21a12.15,12.15,0,0,0,4.32-3.08M204,50a10,10,0,1,0,10,10A10,10,0,0,0,204,50Z"/><rect x="168" y="48" width="24" height="24" style="fill:none"/><path d="M177.26,57.3a.9.9,0,0,1,.9-.9h2.33a.9.9,0,1,1,0,1.8h-2.33A.9.9,0,0,1,177.26,57.3ZM189,53V67a2,2,0,0,1-2,2H173a2,2,0,0,1-2-2V53a2,2,0,0,1,2-2h14A2,2,0,0,1,189,53Zm-3.6,7a.9.9,0,0,0-.9-.9.9.9,0,0,1-.9-.9V56.4a2.7,2.7,0,0,0-2.7-2.7h-3.6a2.7,2.7,0,0,0-2.7,2.7v6.3a2.7,2.7,0,0,0,2.7,2.7h5.4a2.7,2.7,0,0,0,2.7-2.7Zm-3.6.9h-3.64a.9.9,0,1,0,0,1.8h3.64a.9.9,0,1,0,0-1.8Z"/><rect x="144" y="48" width="24" height="24" style="fill:none"/><path d="M163.58,60.27a1.94,1.94,0,0,0-.62-1.41,2,2,0,0,0-1.38-.48,1.84,1.84,0,0,0-1.39.51,2.39,2.39,0,0,0-.62,1.38m6.35-.23a10.65,10.65,0,0,1,.08,1.77h-6.5a2.16,2.16,0,0,0,.94,1.88,2.3,2.3,0,0,0,1.29.34,1.88,1.88,0,0,0,1.27-.41,1.75,1.75,0,0,0,.5-.62h2.38a2.83,2.83,0,0,1-.88,1.62,4.23,4.23,0,0,1-3.34,1.3,5,5,0,0,1-3.16-1.1,4.4,4.4,0,0,1-1.34-3.57,4.77,4.77,0,0,1,1.23-3.55,4.28,4.28,0,0,1,3.19-1.24,5,5,0,0,1,2.09.42,3.56,3.56,0,0,1,1.54,1.32,4.32,4.32,0,0,1,.71,1.84m-12.34,2a1.35,1.35,0,0,0-.79-1.34,3.71,3.71,0,0,0-1.25-.23h-2.67v3.34h2.63a2.88,2.88,0,0,0,1.26-.22,1.56,1.56,0,0,0,.82-1.55m-4.71-3.61h2.63a2.43,2.43,0,0,0,1.32-.31,1.16,1.16,0,0,0,.5-1.09,1.14,1.14,0,0,0-.66-1.15,4.73,4.73,0,0,0-1.47-.19h-2.32m6.85,4.7a3.31,3.31,0,0,1,.48,1.82,3.78,3.78,0,0,1-.55,2,3.39,3.39,0,0,1-2.29,1.6,8.73,8.73,0,0,1-1.75.17H146V53.55h6a3.78,3.78,0,0,1,3.23,1.33,3.17,3.17,0,0,1,.57,1.9,2.78,2.78,0,0,1-.57,1.83,3.06,3.06,0,0,1-.95.71,2.83,2.83,0,0,1,1.44,1.1m8.34-5.1h-5V54.07h5Z"/><rect x="48" y="48" width="24" height="24" style="fill:none"/><path d="M69.8,56a4.37,4.37,0,0,0-.8-2,2.91,2.91,0,0,0-2-.85c-2.8-.2-7-.2-7-.2h0s-4.2,0-7,.2A2.91,2.91,0,0,0,51,54a4.32,4.32,0,0,0-.79,2,30.24,30.24,0,0,0-.2,3.23v1.52A30.31,30.31,0,0,0,50.2,64,4.26,4.26,0,0,0,51,66a3.42,3.42,0,0,0,2.21.86c1.6.15,6.8.2,6.8.2s4.2,0,7-.21A2.86,2.86,0,0,0,69,66a4.31,4.31,0,0,0,.8-2,30.31,30.31,0,0,0,.2-3.24V59.24A30.24,30.24,0,0,0,69.8,56ZM57.93,62.6V57l5.4,2.82Z"/><rect x="192" y="24" width="24" height="24" style="fill:none"/><path d="M208.71,36.07c-.27-.09-.46-.14-.32-.51a2.13,2.13,0,0,0,0-2c-.64-.92-2.38-.87-4.37,0,0,0-.63.28-.47-.23a2.31,2.31,0,0,0-.22-2.33c-1.08-1.1-4,0-6.42,2.55-1.85,1.88-2.92,3.88-2.92,5.6,0,3.3,4.15,5.5,8.22,5.5,5.32,0,8.87-3.35,8.87-5.85A3,3,0,0,0,208.71,36.07Zm-6.48,7.1c-3.25.32-6-1.16-6.25-3.3s2.24-4.13,5.49-4.46,6,1.16,6.25,3.3S205.47,42.84,202.23,43.17ZM214,33.38a6,6,0,0,0-6-6,.7.7,0,0,0,0,1.4,4.62,4.62,0,0,1,4.62,4.63.7.7,0,0,0,.71.7.7.7,0,0,0,.7-.7Zm-2.8-.1a4,4,0,0,0-3.12-3.13.71.71,0,0,0-.29,1.38,2.62,2.62,0,0,1,2,2,.7.7,0,1,0,1.37-.28Zm-10.64,4.23a2.24,2.24,0,0,0-2,2.45,2.45,2.45,0,1,0,2-2.45Z"/><rect x="144" y="24" width="24" height="24" style="fill:none"/><path d="M161.67,26a.84.84,0,0,0-.77.55s-6.22,11-6.4,11.38l4.08,7.52a.89.89,0,0,0,.8.55h2.88a.43.43,0,0,0,.38-.18.45.45,0,0,0,0-.45l-4.07-7.45L165,26.63a.48.48,0,0,0,0-.45.46.46,0,0,0-.39-.18m-15,3.95a.39.39,0,0,0-.37.62l1.94,3.4-3.06,5.4a.58.58,0,0,0,0,.45.4.4,0,0,0,.37.18h2.89a.88.88,0,0,0,.79-.55l3.11-5.5-2-3.45a.89.89,0,0,0-.81-.55"/><rect x="96" y="24" width="24" height="24" style="fill:none"/><path d="M113.85,36.74c-.28-.57-1.07-1.05-2.12-.24a6.62,6.62,0,0,1-7.43,0c-1-.81-1.84-.33-2.12.24-.5,1,.06,1.49,1.33,2.3a8.54,8.54,0,0,0,3.54,1.06l-.8.8c-1.14,1.13-2.24,2.22-3,3a1.14,1.14,0,0,0,0,1.62l.14.16a1.16,1.16,0,0,0,1.64,0l3-3,3,3a1.16,1.16,0,0,0,1.64,0l.13-.16a1.12,1.12,0,0,0,0-1.62l-3-3-.79-.81A8.39,8.39,0,0,0,112.52,39c1.27-.81,1.83-1.3,1.33-2.3M108,28.57a2.49,2.49,0,1,1-2.5,2.49,2.5,2.5,0,0,1,2.5-2.49m0,7.55A5.06,5.06,0,1,0,103,31.06,5.06,5.06,0,0,0,108,36.12Z"/><rect x="144" width="24" height="24" style="fill:none"/><path d="M165,21h-4V14.25a2.25,2.25,0,0,0-2.25-1.94A1.8,1.8,0,0,0,157,14.25V21h-4V9h4v2a4.59,4.59,0,0,1,3.5-1.76,4.51,4.51,0,0,1,4.5,4.51V21m-14,0h-4V9h4V21M149,3a2,2,0,1,1-2,2A2,2,0,0,1,149,3Z"/><rect x="48" width="24" height="24" style="fill:none"/><path d="M70,5.91a7.91,7.91,0,0,1-2.35.66,4.12,4.12,0,0,0,1.8-2.27,8.55,8.55,0,0,1-2.6,1,4.1,4.1,0,0,0-7,3.74A11.64,11.64,0,0,1,51.4,4.76a4.06,4.06,0,0,0,1.27,5.45,4.17,4.17,0,0,1-1.87-.47v0a4.11,4.11,0,0,0,3.29,4,3.86,3.86,0,0,1-1.08.14,4.77,4.77,0,0,1-.76-.07,4.09,4.09,0,0,0,3.82,2.85A8.19,8.19,0,0,1,51,18.46a8,8,0,0,1-1-.05A11.67,11.67,0,0,0,68,8.58c0-.18,0-.35,0-.54A8,8,0,0,0,70,5.91Z"/><rect x="168" y="72" width="24" height="24" style="fill:none"/><path d="M180,76.74a4.12,4.12,0,0,1,3.92,2.43,9.29,9.29,0,0,1,.16,3.58.64.64,0,0,0,.45.13,2,2,0,0,0,.79-.2h.11c.39,0,.66.17.7.39s-.41.57-.7.68c-.54.18-1,.34-1.19.69a.87.87,0,0,0,.09.7,5.07,5.07,0,0,0,.82,1.28,4.14,4.14,0,0,0,2.43,1.46c.09,0,.15.08.13.28s-.84.57-2,.75c-.11,0-.16.2-.31.85a.24.24,0,0,1-.25.18,5.46,5.46,0,0,0-1.14-.12l-.67,0a3.25,3.25,0,0,0-1.2.61,3.28,3.28,0,0,1-4.34,0,3.25,3.25,0,0,0-1.2-.61l-.67,0a5.46,5.46,0,0,0-1.14.12.24.24,0,0,1-.25-.18c-.15-.65-.2-.83-.31-.85-1.13-.18-1.83-.43-2-.75s0-.28.13-.28a4.14,4.14,0,0,0,2.43-1.46,5.07,5.07,0,0,0,.82-1.28.87.87,0,0,0,.09-.7c-.15-.35-.65-.51-1.19-.69-.29-.11-.76-.35-.7-.68s.31-.39.7-.39h.11a2,2,0,0,0,.79.2.64.64,0,0,0,.45-.13,9.29,9.29,0,0,1,.16-3.58A4.12,4.12,0,0,1,180,76.74m0-1.29a5.32,5.32,0,0,0-5.09,3.2,6.19,6.19,0,0,0-.35,2.73,1.89,1.89,0,0,0-1.95,1.41v0c-.06.34-.13,1.49,1.51,2.12h0l.06,0,.07,0a4.86,4.86,0,0,1-.41.56,2.84,2.84,0,0,1-1.64,1,1.38,1.38,0,0,0-.87.46,1.54,1.54,0,0,0-.35,1.27,1.07,1.07,0,0,0,.09.34c.29.67,1,1.09,2.21,1.38h0v0a1.51,1.51,0,0,0,1.49,1.13l.23,0a3.85,3.85,0,0,1,.91-.1h.51a3.55,3.55,0,0,1,.53.33l.1.07a4.75,4.75,0,0,0,2.9,1,4.7,4.7,0,0,0,2.88-1l.12-.08a3.55,3.55,0,0,1,.53-.33H184a3.85,3.85,0,0,1,.91.1l.23,0a1.51,1.51,0,0,0,1.49-1.13v0h0c1.25-.29,1.92-.71,2.21-1.38a1.07,1.07,0,0,0,.09-.34,1.54,1.54,0,0,0-.35-1.27,1.38,1.38,0,0,0-.87-.46,2.76,2.76,0,0,1-1.62-1,5,5,0,0,1-.43-.57l.07,0,.06,0h0c1.64-.63,1.57-1.78,1.51-2.12v0a1.89,1.89,0,0,0-1.95-1.41,6.19,6.19,0,0,0-.35-2.73,5.32,5.32,0,0,0-5.09-3.2Z"/><rect x="168" y="192" width="24" height="24" style="fill:none"/><path d="M187.68,199.5l-.29,0h-.09l-.35-.05h0a4,4,0,0,1-2.62-1.6h0a4.91,4.91,0,0,1-.78-1.84h0v0h0v0h0v-.08h0a4.21,4.21,0,0,1-.08-.78v0h-3v11.83a5.85,5.85,0,0,1-.17,1.46,2.54,2.54,0,0,1-4.46.39h0l0,0,0,0c-.75-1.7.2-4.06,3-3.64v-3.29l-.13,0h-.11c-6.24-.76-8.53,7.83-3.33,10.65h0a2.44,2.44,0,0,0,.28.14l0,0,.07,0,.06,0,.07,0,.08,0,.05,0,.13,0h0l.1,0h.05l.1,0h0l.14.05a6.09,6.09,0,0,0,2.69.09c2.81-.53,4.32-3.18,4.28-5.88v-5.95a7.32,7.32,0,0,0,4.25,1.5Z"/><rect x="144" y="192" width="24" height="24" style="fill:none"/><path d="M160.74,204.23a3.15,3.15,0,0,1,3.15,3.14v2.49a3.15,3.15,0,0,1-3.15,3.14h-4.65a3.16,3.16,0,0,1-3-2.16l-2.76,1.38a1.55,1.55,0,0,1-2.06-.68,1.48,1.48,0,0,1-.16-.68v-4.47a1.52,1.52,0,0,1,1.53-1.53,1.5,1.5,0,0,1,.69.17l2.76,1.38a3.15,3.15,0,0,1,3-2.18Zm0,1.62h-4.58a1.57,1.57,0,0,0-1.58,1.54v2.42a1.57,1.57,0,0,0,1.55,1.57h4.58a1.57,1.57,0,0,0,1.58-1.54v-2.42A1.58,1.58,0,0,0,160.72,205.85Zm-10.57,1a.42.42,0,0,0-.42.41V210a.42.42,0,0,0,.43.41.33.33,0,0,0,.17,0h0l2.6-1.32v-.93l-2.6-1.3A.41.41,0,0,0,150.15,206.82ZM154,195a4.28,4.28,0,0,1,3.73,2.17,3.65,3.65,0,1,1-.47,4.82,4.26,4.26,0,1,1-3.26-7Zm0,1.71a2.54,2.54,0,1,0,2.56,2.54A2.54,2.54,0,0,0,154,196.71Zm6.22,1.2a1.93,1.93,0,0,0-1.94,1.94h0a1.93,1.93,0,0,0,1.94,1.93h0a1.93,1.93,0,0,0,1.95-1.93h0a1.93,1.93,0,0,0-1.94-1.94Z" style="fill-rule:evenodd"/><rect x="96" y="48" width="24" height="24" style="fill:none"/><path d="M115.2,51H100.8A1.81,1.81,0,0,0,99,52.8V67.2a1.81,1.81,0,0,0,1.8,1.8h14.4a1.81,1.81,0,0,0,1.8-1.8V52.8A1.81,1.81,0,0,0,115.2,51Zm-1,5.9q-.09,1.91-2.65,5.2-2.66,3.45-4.49,3.45-1.14,0-1.92-2.1l-1-3.85q-.58-2.1-1.26-2.1a4.35,4.35,0,0,0-1,.61l-.61-.78c.64-.57,1.28-1.13,1.9-1.7a4.14,4.14,0,0,1,1.93-1.16q1.52-.15,1.86,2.07c.26,1.6.43,2.59.53,3,.29,1.33.61,2,1,2s.69-.43,1.23-1.29a5,5,0,0,0,.88-2c.07-.75-.22-1.12-.88-1.12a2.45,2.45,0,0,0-1,.21q1-3.14,3.66-3.05C113.7,54.34,114.33,55.21,114.25,56.9Z"/><rect x="144" y="72" width="24" height="24" style="fill:none"/><path d="M163,75H149a2,2,0,0,0-2,2V91a2,2,0,0,0,2,2h14a2,2,0,0,0,2-2V77A2,2,0,0,0,163,75ZM160,88.19c-3,0-4-1.35-4.58-3l-.55-1.73c-.42-1.26-.9-2.25-2.42-2.25-1.06,0-2.13.76-2.13,2.89,0,1.66.85,2.69,2,2.69a3.3,3.3,0,0,0,2.25-1l.55,1.5a4.21,4.21,0,0,1-2.88.92c-2.42,0-3.77-1.42-3.77-4s1.35-4.34,3.89-4.34c2.29,0,3.45.83,4.18,3.08l.57,1.72A2.74,2.74,0,0,0,160,86.79c1.18,0,1.8-.26,1.8-.9s-.3-.86-1.18-1.07l-1.17-.28c-1.43-.34-2-1.08-2-2.26,0-1.88,1.53-2.47,3.08-2.47,1.76,0,2.83.64,3,2.2l-1.73.2c-.07-.74-.51-1-1.34-1s-1.23.34-1.23.93.22.83,1,1l1.11.25c1.49.34,2.28,1.07,2.28,2.47C163.54,87.53,162.09,88.19,160,88.19Z"/><rect x="72" y="72" width="24" height="24" style="fill:none"/><path d="M89.14,93h-3c-2.74,0-4.77-1.39-4.77-4.72V82.94H78.86V80.05a5.36,5.36,0,0,0,4-5H85.7v4.58H89v3.36H85.7v4.65c0,1.39.71,1.87,1.84,1.87h1.6Z"/><rect x="72" y="168" width="24" height="24" style="fill:none"/><path d="M94,179.09c0-4.48-4.49-8.12-10-8.12s-10,3.64-10,8.12c0,4,3.56,7.37,8.36,8,.33.07.77.22.88.5a2.11,2.11,0,0,1,0,.9s-.12.71-.15.86-.2,1,.87.54a32.45,32.45,0,0,0,7.86-5.81h0A7.21,7.21,0,0,0,94,179.09Zm-13.53,2.39a.18.18,0,0,1-.19.19H77.47a.19.19,0,0,1-.19-.19h0v-4.36a.2.2,0,0,1,.19-.2h.71a.19.19,0,0,1,.19.2v3.46h1.91a.19.19,0,0,1,.19.19Zm1.69,0a.18.18,0,0,1-.19.19h-.71a.19.19,0,0,1-.19-.19v-4.36a.2.2,0,0,1,.19-.2H82a.19.19,0,0,1,.19.2Zm4.83,0a.18.18,0,0,1-.19.19H86l0,0-2-2.7v2.59a.19.19,0,0,1-.19.19H83a.18.18,0,0,1-.19-.19v-4.36a.19.19,0,0,1,.19-.2h.85v0l2,2.7v-2.59a.2.2,0,0,1,.19-.2h.71a.19.19,0,0,1,.19.2Zm3.87-3.66a.19.19,0,0,1-.19.2H88.76v.73h1.91a.19.19,0,0,1,.19.19v.71a.18.18,0,0,1-.19.19H88.76v.74h1.91a.19.19,0,0,1,.19.19v.71a.18.18,0,0,1-.19.19H87.86a.19.19,0,0,1-.19-.19h0v-4.36h0a.2.2,0,0,1,.19-.2h2.81a.19.19,0,0,1,.19.2Z"/><rect x="216" y="192" width="24" height="24" style="fill:none"/><path d="M231.76,214c-1.46-.06-3.26.11-5-.09a10,10,0,1,1,11.19-11.2A9.89,9.89,0,0,1,236,210c-.21.29-.21.46.06.7.5.47,1,1,1.45,1.45a1.06,1.06,0,0,1,.38,1.28,1.08,1.08,0,0,1-1.15.61C235.19,214,233.64,214,231.76,214ZM228,210a6,6,0,1,0-6-6A6,6,0,0,0,228,210Z"/><rect x="168" y="168" width="24" height="24" style="fill:none"/><path d="M187,171H173a2,2,0,0,0-2,2v14a2,2,0,0,0,2,2h14a2,2,0,0,0,2-2V173A2,2,0,0,0,187,171ZM184,176.71h-3v8.16H179v-8.16h-3v-1.58H184Z"/><rect x="120" y="192" width="24" height="24" style="fill:none"/><path d="M123.77,201.59s.24-2.29,1.82-2.43a2.42,2.42,0,0,1,2.28,2.05c.06.51.33,2.86-1.63,3.28S123.56,202.65,123.77,201.59Zm5.33,6.27a1.18,1.18,0,0,0-.78.69,1.64,1.64,0,0,0-.08.95,1.09,1.09,0,0,0,.94.86h1v-2.5Zm.77-7.3c1.08,0,2-1.24,2-2.78s-.88-2.78-2-2.78-2,1.24-2,2.78S128.79,200.56,129.87,200.56Zm4.66.18c1.44.19,2.37-1.35,2.56-2.52a2.63,2.63,0,0,0-1.77-2.75c-1-.24-2.31,1.4-2.42,2.47C132.76,199.25,133.08,200.56,134.53,200.74Zm4.14,10.71c-1.07,2.52-5,1.21-5,1.21a6.47,6.47,0,0,0-3.12-.09,11.13,11.13,0,0,1-3.12.23s-2,0-2.51-2.43,2-3.83,2.14-4.06a11.4,11.4,0,0,0,2.32-2.53c.85-1.4,3.36-2.52,5.13.24a19.53,19.53,0,0,0,3.54,3.59A3.17,3.17,0,0,1,138.67,211.45Zm-7.3-6.23-1.15,0v1.67h-1.36a2.22,2.22,0,0,0-1.82,1.64,2.82,2.82,0,0,0,.2,1.76,2.21,2.21,0,0,0,1.59,1.1h2.54Zm4.74,1.8h-1.26v3.25h-1.21s-.38-.05-.46-.36V207L132,207v3.23s.06.81,1.19,1.1h2.93Zm4.14-4.31a2.26,2.26,0,0,0-2.18-2.25c-1.73,0-2,1.59-2,2.72s.09,2.57,2.24,2.52S140.25,203.27,140.25,202.71Z"/><rect y="168" width="24" height="24" style="fill:none"/><path d="M4,188.7a2.7,2.7,0,0,1-2-.79A.65.65,0,0,1,2,187c.43-.41.72-.71.87-.89a5.41,5.41,0,0,0,.63-1.18A10,10,0,1,1,12.21,190a9.94,9.94,0,0,1-5.74-1.81A6.31,6.31,0,0,1,4,188.7Zm.3-1.48a4.71,4.71,0,0,0,1.92-.39l.43-.18a.45.45,0,0,1,.42,0l.38.27a8.32,8.32,0,1,0-2.5-2.75l.21.36a.48.48,0,0,1,0,.39l-.17.37a6.18,6.18,0,0,1-.8,1.45l-.36.38a1.53,1.53,0,0,0,.45.06Zm3.05-5.33c0,.43-.19.65-.59.65s-.57-.22-.57-.66v-3a.61.61,0,0,1,.16-.45.57.57,0,0,1,.42-.17c.39,0,.58.21.58.63ZM14,182a.52.52,0,0,1-.58.59.52.52,0,0,1-.59-.59V179.7c0-.33-.18-.49-.54-.49a.5.5,0,0,0-.34.15.44.44,0,0,0-.16.34V182a.52.52,0,0,1-.58.59.52.52,0,0,1-.59-.59v-2.29q0-.45-.42-.45a.69.69,0,0,0-.41.17.42.42,0,0,0-.2.34V182a.52.52,0,0,1-.58.59.53.53,0,0,1-.6-.59v-3.14a.5.5,0,0,1,.57-.55.54.54,0,0,1,.58.37,1.28,1.28,0,0,1,.94-.37,1.25,1.25,0,0,1,1,.5,1.39,1.39,0,0,1,1.16-.5,1.25,1.25,0,0,1,1,.41,1.46,1.46,0,0,1,.29,1V182Zm2.59.66a2.19,2.19,0,0,1,0-4.35,2.19,2.19,0,0,1,0,4.35Zm0-1.09c.48,0,.87-.53.87-1.19s-.39-1.2-.87-1.2-.87.54-.87,1.2S16.09,181.52,16.57,181.52ZM6.79,178a.65.65,0,1,1,0-1.3h0a.65.65,0,1,1,0,1.3Z"/><rect x="72" y="216" width="24" height="24" style="fill:none"/><path d="M86.31,226.5A2.35,2.35,0,1,1,84,224.15,2.35,2.35,0,0,1,86.31,226.5ZM94,228a10,10,0,1,1-10-10A10,10,0,0,1,94,228Zm-5.75-1.5a4.29,4.29,0,0,0-8.58,0c0,.1,0,.2,0,.3s0,.06,0,.09v6.64a.36.36,0,0,0,.37.36h1.28a.36.36,0,0,0,.36-.36v-3.4a4.23,4.23,0,0,0,2.28.66A4.29,4.29,0,0,0,88.25,226.5Z"/><rect x="96" y="216" width="24" height="24" style="fill:none"/><path d="M116.35,229.16l-8.15,8.15a.32.32,0,0,1-.46,0l-2.19-2.19,12-12A5.63,5.63,0,0,1,116.35,229.16Zm0-7.94a5.51,5.51,0,0,0-1.36-1L102.83,232.4l2.36,2.36,12.17-12.18A5.51,5.51,0,0,0,116.37,221.22Zm-7.16-.62-9.1,9.09,2.36,2.35,12-12A5.62,5.62,0,0,0,109.21,220.6Zm-3.93,3.2,2.43-2.44-.12-.12a5.64,5.64,0,0,0-6.08-1.22Zm-2.73,2.72,2.37-2.36L101,220.25a5.7,5.7,0,0,0-2.36,2.37Zm-4.13-3.41a5.62,5.62,0,0,0,1.22,6.09l.12.12,2.43-2.43Z"/><rect x="192" y="192" width="24" height="24" style="fill:none"/><path d="M211,197.69a16.71,16.71,0,0,0-4.14-1.27,10.56,10.56,0,0,0-.52,1.07,16,16,0,0,0-4.58,0c-.14-.33-.36-.76-.53-1.07a16.38,16.38,0,0,0-4.13,1.27,16.66,16.66,0,0,0-3,11.35,16.84,16.84,0,0,0,5.07,2.54,12.46,12.46,0,0,0,1.08-1.75,10,10,0,0,1-1.71-.82c.14-.1.29-.21.42-.32a11.87,11.87,0,0,0,10.12,0l.41.32a10,10,0,0,1-1.71.82,13.46,13.46,0,0,0,1.08,1.75,16.72,16.72,0,0,0,5.07-2.54A16.6,16.6,0,0,0,211,197.69Zm-10.27,9.06a2,2,0,0,1,0-4,1.88,1.88,0,0,1,1.79,2A1.9,1.9,0,0,1,200.69,206.75Zm6.64,0a2,2,0,0,1,0-4,2,2,0,0,1,0,4Z"/><rect x="96" y="168" width="24" height="24" style="fill:none"/><path d="M115,171H101a2,2,0,0,0-2,2v14a2,2,0,0,0,2,2h14a2,2,0,0,0,2-2V173A2,2,0,0,0,115,171Zm-4.44,11.91a.75.75,0,0,1-.64.43l-.44,0H105c-.41,0-.82,0-1.22-.05a2,2,0,0,1-1.31-.76l-.1-.14a2.89,2.89,0,0,1-.33-1.61v-3.24a.9.9,0,0,1,.23-.68.72.72,0,0,1,.48-.22l.41,0h4.74a5.81,5.81,0,0,1,1.18.08,1.93,1.93,0,0,1,1.55,1.68,10.54,10.54,0,0,1,0,1.26c0,.89,0,1.79,0,2.69,0,0,0,.07,0,.11A1.16,1.16,0,0,1,110.56,182.91Zm3.42,0a.46.46,0,0,1-.72.32c-.27-.18-.51-.41-.76-.61l-.23-.18c-.25-.22-.5-.42-.74-.64a1.11,1.11,0,0,1-.4-.85c0-.62,0-1.23,0-1.84a1.09,1.09,0,0,1,.37-.83c.56-.49,1.13-1,1.71-1.42a.44.44,0,0,1,.41-.1.47.47,0,0,1,.36.4,1.88,1.88,0,0,1,0,.34v4.93A3.85,3.85,0,0,1,114,182.88Z"/><rect x="144" y="168" width="24" height="24" style="fill:none"/><path d="M164,174.38l-2.69,2.21v-2.76a1.25,1.25,0,0,0-1.24-1.24h-8.84L147,176.81h0v6.38h0v3a1.24,1.24,0,0,0,1.23,1.24h11.83a1.25,1.25,0,0,0,1.24-1.24v-2.66l2.7,2.22a.62.62,0,0,0,1-.48V174.86A.62.62,0,0,0,164,174.38Zm-2.69,2.21Zm-4.12,6.6h-6v-6.38h6V180h0Z"/><rect x="120" y="168" width="24" height="24" style="fill:none"/><path d="M139.58,171.61H128.51a1.42,1.42,0,0,0-1.42,1.42v2.61h-2.67a1.42,1.42,0,0,0-1.42,1.42v12.61a.71.71,0,0,0,1.21.51l2.94-2.94h8.35a1.41,1.41,0,0,0,1.41-1.41v-2.67h2.67a1.42,1.42,0,0,0,1.42-1.42V173A1.42,1.42,0,0,0,139.58,171.61Z"/><rect x="192" y="168" width="24" height="24" style="fill:none"/><path d="M209,171H199a4,4,0,0,0-4,4V185a4,4,0,0,0,4,4H209a4,4,0,0,0,4-4V175A4,4,0,0,0,209,171Zm-5,14.12a7.85,7.85,0,0,1-1.87-.23,6.92,6.92,0,0,1-2.68,1.06,5.35,5.35,0,0,0,1.15-1.62,5.4,5.4,0,0,1-3.21-4.71c0-3,3-5.5,6.61-5.5h0c3.65,0,6.61,2.46,6.61,5.5S207.65,185.12,204,185.12Z"/><rect x="216" y="168" width="24" height="24" style="fill:none"/><path d="M232.87,171h-9.74a4.12,4.12,0,0,0-4.13,4.13v9.74a4.12,4.12,0,0,0,4.13,4.13h9.74a4.12,4.12,0,0,0,4.13-4.13v-9.74A4.12,4.12,0,0,0,232.87,171Zm-2.39,11.2a1.72,1.72,0,0,1-1.73,1.73h-5.27a1.73,1.73,0,0,1-1.74-1.73v-4.38a1.73,1.73,0,0,1,1.74-1.73h5.27a1.73,1.73,0,0,1,1.73,1.73Zm3.78.67a.69.69,0,0,1-1.14.53l-2-1.67a.78.78,0,0,1-.27-.59v-2.26a.78.78,0,0,1,.28-.6l2-1.63a.69.69,0,0,1,1.14.53Z"/><rect x="48" y="168" width="24" height="24" style="fill:none"/><path d="M58.46,179.88H57.31l.57-1.64ZM70,179.16c0,4.35-4.48,7.88-10,7.88a13,13,0,0,1-1.78-.12c-.57.4-3.91,2.75-4.22,2.79a.32.32,0,0,1-.24,0c-.11-.07-.09-.24-.09-.24,0-.22.86-3.09,1-3.62C51.87,184.44,50,182,50,179.16c0-4.36,4.48-7.89,10-7.89h0C65.52,171.27,70,174.8,70,179.16Zm-15-1.23H56a.57.57,0,0,0,0-1.13H53a.57.57,0,0,0,0,1.13h.9v3.43a.58.58,0,0,0,1.16,0ZM60,181l-1.38-3.63a.8.8,0,0,0-1.53,0L55.74,181c-.18.55,0,.75.13.82a1,1,0,0,0,.37.08.49.49,0,0,0,.48-.25l.29-.75h1.75l.29.75a.49.49,0,0,0,.48.25h0a1,1,0,0,0,.37-.08C60.06,181.75,60.21,181.55,60,181Zm3.34.3a.54.54,0,0,0-.56-.53H61.59v-3.39a.59.59,0,0,0-.59-.58.58.58,0,0,0-.59.58v3.92a.54.54,0,0,0,.55.52h1.85A.54.54,0,0,0,63.37,181.3Zm3.85-.34-1.42-1.88,1.31-1.31a.45.45,0,0,0,.13-.35.58.58,0,0,0-.17-.37.56.56,0,0,0-.4-.17.48.48,0,0,0-.32.13l-1.61,1.61v-1.24a.58.58,0,1,0-1.15,0v3.94a.58.58,0,0,0,.58.58h0a.57.57,0,0,0,.57-.58v-1.25l.2-.2,1.36,1.79a.59.59,0,0,0,.46.23.52.52,0,0,0,.34-.12.55.55,0,0,0,.23-.38A.6.6,0,0,0,67.22,181Z"/><rect x="24" y="168" width="24" height="24" style="fill:none"/><path d="M33.6,170.29l.22.91a9.19,9.19,0,0,0-2.51,1l-.48-.8A9.9,9.9,0,0,1,33.6,170.29Zm4.8,0-.22.91a9.19,9.19,0,0,1,2.51,1l.48-.8a9.9,9.9,0,0,0-2.77-1.15Zm-11,4.54a9.9,9.9,0,0,0-1.15,2.77l.91.22a9.19,9.19,0,0,1,1-2.51Zm-.5,5.17a8.89,8.89,0,0,1,.1-1.36l-.93-.14a10.06,10.06,0,0,0,0,3l.93-.14a8.89,8.89,0,0,1-.1-1.36Zm14.23,8.56-.48-.8a9.19,9.19,0,0,1-2.51,1l.22.91A9.9,9.9,0,0,0,41.17,188.56ZM45.06,180a8.89,8.89,0,0,1-.1,1.36l.93.14a10.06,10.06,0,0,0,0-3l-.93.14a8.89,8.89,0,0,1,.1,1.36Zm.65,2.4-.91-.23a9.12,9.12,0,0,1-1,2.52l.8.48A10,10,0,0,0,45.71,182.4ZM37.36,189a8.86,8.86,0,0,1-2.72,0l-.14.93a10.06,10.06,0,0,0,3,0Zm5.94-3.58a9.15,9.15,0,0,1-1.92,1.91l.55.76a10.34,10.34,0,0,0,2.12-2.11ZM41.38,172.7a9.2,9.2,0,0,1,1.92,1.92l.75-.56A10,10,0,0,0,41.94,172ZM28.7,174.62a9.2,9.2,0,0,1,1.92-1.92l-.56-.75A10,10,0,0,0,28,174.06Zm15.86.21-.8.48a9.19,9.19,0,0,1,1,2.51l.91-.22a9.9,9.9,0,0,0-1.15-2.77ZM34.64,171a8.86,8.86,0,0,1,2.72,0l.14-.93a10.06,10.06,0,0,0-3,0ZM29.18,188.3l-1.93.45.45-1.94-.91-.21-.45,1.93a.92.92,0,0,0,.11.71.88.88,0,0,0,.59.42,1,1,0,0,0,.42,0l1.94-.44ZM27,185.76l.92.21.31-1.34a8.68,8.68,0,0,1-1-2.46l-.91.23a10.57,10.57,0,0,0,.92,2.38Zm4.38,2-1.34.32.21.91,1-.23a9.63,9.63,0,0,0,2.37.92l.23-.91a9.05,9.05,0,0,1-2.45-1ZM36,171.87a8.13,8.13,0,0,0-6.88,12.45l-.78,3.34,3.34-.78a8.13,8.13,0,1,0,4.32-15h0"/><rect y="216" width="24" height="24" style="fill:none"/><path d="M21,226.13l0-.07-2.55-6.64a.66.66,0,0,0-1.26.07l-1.72,5.25h-7l-1.71-5.25a.67.67,0,0,0-1-.39.68.68,0,0,0-.26.32L3,226.05l0,.07a4.71,4.71,0,0,0,1.56,5.46h0l3.87,2.91L10.36,236l1.17.88a.8.8,0,0,0,1,0l1.16-.88,1.92-1.45,3.9-2.92h0A4.73,4.73,0,0,0,21,226.13Z"/><rect x="48" y="192" width="24" height="24" style="fill:none"/><path d="M67.37,199.82a4.51,4.51,0,0,0-2.16,3.81,4.38,4.38,0,0,0,2.68,4,10.25,10.25,0,0,1-1.37,2.84c-.86,1.23-1.75,2.46-3.11,2.46s-1.72-.79-3.28-.79-2.08.82-3.32.82-2.12-1.14-3.11-2.54a12.24,12.24,0,0,1-2.09-6.62c0-3.89,2.53-6,5-6,1.32,0,2.42.86,3.25.86s2-.92,3.53-.92A4.72,4.72,0,0,1,67.37,199.82Zm-4.68-3.63a4.49,4.49,0,0,0,1.07-2.79,2.46,2.46,0,0,0,0-.4,4.48,4.48,0,0,0-2.95,1.52,4.32,4.32,0,0,0-1.1,2.71,2,2,0,0,0,0,.36l.27,0A3.86,3.86,0,0,0,62.69,196.19Z"/><rect y="192" width="24" height="24" style="fill:none"/><path d="M3.09,196.48l7.57,7.57-7.57,7.58Zm12.16,3L9,195.84a27.86,27.86,0,0,0-3-1.69,2.16,2.16,0,0,0-2.73,1.14l8.09,8.09Zm-12,13.33a2.15,2.15,0,0,0,.35.5,2.25,2.25,0,0,0,3,.29c2-1.13,4-2.26,5.92-3.41.9-.53,1.82-1,2.7-1.57l-3.87-3.88Zm16.58-10.64c-1.24-.75-2.49-1.47-3.74-2.19L12,204.05l4,4a39.35,39.35,0,0,0,4-2.32A2.17,2.17,0,0,0,19.84,202.15Z"/><rect x="96" y="192" width="24" height="24" style="fill:none"/><path d="M108,194a10,10,0,1,0,10,10A10,10,0,0,0,108,194Zm3.35,15.93h-2.07V199.67h-.92c-1.7,0-2.59.85-2.59,2.12,0,1.43.62,2.1,1.88,3l1,.7-3,4.49h-2.24l2.7-4c-1.55-1.11-2.42-2.19-2.42-4,0-2.29,1.59-3.85,4.62-3.85h3Z"/><rect x="72" y="192" width="24" height="24" style="fill:none"/><path d="M84,194a10,10,0,1,0,10,10A10,10,0,0,0,84,194Zm1.06,15.9h-2v-1.19a7.6,7.6,0,0,0-.84-3.82l-3.16-6.83h2.19l2.68,5.84a9,9,0,0,1,1.13,4.55Zm1.35-6.12H84.34l2.5-5.72h2.1Z"/><rect x="24" y="216" width="24" height="24" style="fill:none"/><path d="M41.46,223.07a4.54,4.54,0,0,0-4.38,3.69,19.9,19.9,0,0,1-2.28-4.9H32.55l0,6a2.14,2.14,0,1,1-4.28,0l0-6-2.26,0,0,6a4.4,4.4,0,1,0,8.8,0v-1a20.55,20.55,0,0,0,1.65,2.7l-1.38,6.61h2.32l1-4.81a5.61,5.61,0,0,0,3.11.89,4.57,4.57,0,0,0,0-9.14Zm0,6.83a4.09,4.09,0,0,1-2.55-1l.23-.91v-.05c.16-1,.66-2.6,2.35-2.6a2.25,2.25,0,0,1,2.27,2.24,2.41,2.41,0,0,1-2.3,2.32Z"/><rect x="48" y="216" width="24" height="24" style="fill:none"/><path d="M60,218a10,10,0,1,0,10,10A10,10,0,0,0,60,218Zm4.41,9.48v5.82H61.79v-5.82H59.26v5.82H56.64v-5.82h-1.5v-2.15h1.5v-.69a2.8,2.8,0,0,1,2.8-2.8h2.34V224H60.13a.87.87,0,0,0-.87.87v.49h5.15Z"/><rect x="24" y="192" width="24" height="24" style="fill:none"/><path d="M40.6,206.78a.83.83,0,0,1,0-1.66.83.83,0,1,1,0,1.66m-9.2,0a.83.83,0,1,1,0-1.66.83.83,0,0,1,0,1.66m9.5-5,1.67-2.88a.37.37,0,0,0-.13-.48.34.34,0,0,0-.47.13l-1.69,2.92a10.42,10.42,0,0,0-8.56,0L30,198.54a.34.34,0,0,0-.47-.13.37.37,0,0,0-.13.48l1.67,2.88a9.83,9.83,0,0,0-5.1,7.86H46a9.83,9.83,0,0,0-5.1-7.86"/><rect x="24" y="120" width="24" height="24" style="fill:none"/><path d="M26.64,123a.64.64,0,0,0-.65.63.37.37,0,0,0,0,.11l2.72,16.53a.87.87,0,0,0,.85.73H42.63a.65.65,0,0,0,.64-.54L46,123.75a.64.64,0,0,0-.53-.74H26.64ZM38.1,135H33.93l-1.13-5.9h6.31Z"/><rect y="96" width="24" height="24" style="fill:none"/><path d="M11.9,110.5H10.8v-5h1.1a2.51,2.51,0,1,1,0,5m0-7.5H8.1v10h3.7c3.5,0,5.6-2.1,5.6-5h0c0-2.9-2-5-5.5-5m.1,13a7.84,7.84,0,0,1-5.1-1.9l-.7-.6-1.7.2.7-1.6-.3-.8a8.11,8.11,0,0,1,7.2-11.4A8.05,8.05,0,0,1,12,116m0-18a10,10,0,0,0-9,14.2l-1.6,4.1,4.3-.6a9.74,9.74,0,0,0,6.4,2.4,9.94,9.94,0,0,0,9.9-10A10.12,10.12,0,0,0,12,98Z"/><rect width="24" height="24" style="fill:none"/><path d="M12,2a10,10,0,0,0-1.56,19.88v-7H7.9V12h2.54V9.8a3.52,3.52,0,0,1,3.77-3.89,15.72,15.72,0,0,1,2.24.19V8.56H15.19a1.45,1.45,0,0,0-1.63,1.56V12h2.78l-.45,2.89H13.56v7A10,10,0,0,0,12,2Z"/><rect x="24" width="24" height="24" style="fill:none"/><path d="M36,2a10,10,0,0,0-1.56,19.88v-7H31.9V12h2.54V9.8a3.52,3.52,0,0,1,3.77-3.89,15.72,15.72,0,0,1,2.24.19V8.56H39.19a1.45,1.45,0,0,0-1.63,1.56V12h2.78l-.45,2.89H37.56v7A10,10,0,0,0,36,2Z"/><rect x="144" y="120" width="24" height="24" style="fill:none"/><path d="M156,122a9.65,9.65,0,0,0-10,9.7,9.49,9.49,0,0,0,3.14,7.18.81.81,0,0,1,.27.56l.05,1.79a.8.8,0,0,0,1.12.7l2-.87a.75.75,0,0,1,.53,0,11,11,0,0,0,2.9.38,9.7,9.7,0,1,0,0-19.4Zm6,7.47-2.94,4.65a1.5,1.5,0,0,1-2.17.4l-2.34-1.75a.6.6,0,0,0-.72,0l-3.16,2.4a.47.47,0,0,1-.69-.63l2.94-4.66a1.5,1.5,0,0,1,2.17-.4l2.34,1.75a.6.6,0,0,0,.72,0l3.16-2.4A.48.48,0,0,1,162,129.47Z"/><rect y="120" width="24" height="24" style="fill:none"/><path d="M12,122a10,10,0,0,0-3.16,19.49c.5.08.68-.21.68-.48s0-1,0-1.86c-2.51.46-3.16-.61-3.36-1.18a3.71,3.71,0,0,0-1-1.41c-.35-.18-.85-.65,0-.66a2,2,0,0,1,1.54,1,2.13,2.13,0,0,0,2.91.83,2.11,2.11,0,0,1,.64-1.34c-2.22-.25-4.55-1.11-4.55-4.94a3.88,3.88,0,0,1,1-2.68,3.63,3.63,0,0,1,.09-2.65s.84-.27,2.75,1a9.4,9.4,0,0,1,5,0c1.91-1.3,2.75-1,2.75-1a3.65,3.65,0,0,1,.1,2.65,3.88,3.88,0,0,1,1,2.68c0,3.84-2.34,4.69-4.56,4.94a2.38,2.38,0,0,1,.67,1.85c0,1.34,0,2.41,0,2.75s.19.58.69.48A10,10,0,0,0,12,122Z" style="fill-rule:evenodd"/><rect x="120" y="96" width="24" height="24" style="fill:none"/><path d="M141.54,108h-9.09a5,5,0,0,0,0-10,.46.46,0,0,0-.45.46v9.09a5,5,0,0,0-10,0,.47.47,0,0,0,.46.46h8.75a5,5,0,0,0,.33,10,.47.47,0,0,0,.46-.46v-9.08a5,5,0,1,0,10,0A.46.46,0,0,0,141.54,108Z"/><rect x="96" width="24" height="24" style="fill:none"/><path d="M117.63,10.33h-9.42v3.76h5.39a4.62,4.62,0,0,1-2,3A6,6,0,1,1,108.21,6a5.45,5.45,0,0,1,3.84,1.5l2.85-2.85A9.57,9.57,0,0,0,108.21,2a10,10,0,0,0-8.92,5.52,9.83,9.83,0,0,0,0,9A10,10,0,0,0,108.21,22a9.51,9.51,0,0,0,6.61-2.43,9.77,9.77,0,0,0,3-7.34A11.69,11.69,0,0,0,117.63,10.33Z"/><rect x="120" width="24" height="24" style="fill:none"/><path d="M132,2a10,10,0,1,0,10,10A10,10,0,0,0,132,2Zm3.41,13.79a4.75,4.75,0,0,1-3.3,1.21,5,5,0,0,1-4.47-2.76,5,5,0,0,1,0-4.48A5,5,0,0,1,132.11,7a4.81,4.81,0,0,1,3.34,1.3L134,9.73A2.69,2.69,0,0,0,132.11,9a3,3,0,1,0,1.69,5.56,2.33,2.33,0,0,0,1-1.49h-2.69V11.17h4.7a5.67,5.67,0,0,1,.08.94A4.9,4.9,0,0,1,135.41,15.79Z"/><rect y="24" width="24" height="24" style="fill:none"/><path d="M8.27,27.06a6.83,6.83,0,0,0-2.18.42A4.45,4.45,0,0,0,4.5,28.53a4.42,4.42,0,0,0-1,1.59,6.61,6.61,0,0,0-.41,2.19c0,1,0,1.26,0,3.71s0,2.75.06,3.71a6.78,6.78,0,0,0,.42,2.18,4.7,4.7,0,0,0,2.64,2.63A6.61,6.61,0,0,0,8.31,45c1,0,1.26,0,3.71,0s2.75,0,3.71-.06a6.78,6.78,0,0,0,2.18-.42,4.7,4.7,0,0,0,2.63-2.64A6.61,6.61,0,0,0,21,39.69c0-1,.05-1.26.05-3.71s0-2.75-.06-3.71a6.78,6.78,0,0,0-.42-2.18,4.7,4.7,0,0,0-2.64-2.63,6.61,6.61,0,0,0-2.19-.41c-1,0-1.26-.05-3.71-.05s-2.75,0-3.71.06m.11,16.27A5.07,5.07,0,0,1,6.71,43a2.89,2.89,0,0,1-1-.68,2.77,2.77,0,0,1-.68-1,5.06,5.06,0,0,1-.31-1.67c0-.95,0-1.23-.06-3.64s0-2.68,0-3.63A5.07,5.07,0,0,1,5,30.71a2.89,2.89,0,0,1,.68-1,2.77,2.77,0,0,1,1-.68,5.06,5.06,0,0,1,1.67-.31c1,0,1.23-.05,3.64-.06s2.68,0,3.63.05a5.07,5.07,0,0,1,1.67.3,2.89,2.89,0,0,1,1,.68,2.77,2.77,0,0,1,.68,1,5.06,5.06,0,0,1,.31,1.67c0,.95.05,1.23.06,3.64s0,2.68-.05,3.63a5.07,5.07,0,0,1-.3,1.67,2.89,2.89,0,0,1-.68,1,2.77,2.77,0,0,1-1,.68,5.06,5.06,0,0,1-1.67.31c-1,0-1.23,0-3.64.06s-2.68,0-3.63-.05m7.33-12.14a1.09,1.09,0,0,0,1.09,1.08,1.08,1.08,0,1,0-1.09-1.08M7.38,36A4.62,4.62,0,1,0,12,31.38,4.62,4.62,0,0,0,7.38,36M9,36a3,3,0,1,1,3,3,3,3,0,0,1-3-3"/><rect x="24" y="24" width="24" height="24" style="fill:none"/><path d="M26,36A10,10,0,1,1,36,46,10,10,0,0,1,26,36Zm10-5.33c-1.45,0-1.63,0-2.2,0a3.55,3.55,0,0,0-1.29.25A2.65,2.65,0,0,0,31,32.51a3.55,3.55,0,0,0-.25,1.29c0,.57,0,.75,0,2.2s0,1.63,0,2.2A3.77,3.77,0,0,0,31,39.49a2.65,2.65,0,0,0,1.56,1.56,3.55,3.55,0,0,0,1.29.25c.57,0,.75,0,2.2,0s1.63,0,2.2,0a3.55,3.55,0,0,0,1.29-.25,2.65,2.65,0,0,0,1.56-1.56,4,4,0,0,0,.25-1.29c0-.57,0-.75,0-2.2s0-1.63,0-2.2a4,4,0,0,0-.25-1.29A2.65,2.65,0,0,0,39.49,31a3.55,3.55,0,0,0-1.29-.25c-.57,0-.75,0-2.2,0Zm-.48,1H36c1.42,0,1.59,0,2.16,0a3,3,0,0,1,1,.18,1.79,1.79,0,0,1,1,1,3,3,0,0,1,.18,1c0,.57,0,.74,0,2.16s0,1.59,0,2.15a2.91,2.91,0,0,1-.18,1,1.7,1.7,0,0,1-.4.62,1.72,1.72,0,0,1-.61.39,2.9,2.9,0,0,1-1,.19c-.57,0-.74,0-2.16,0s-1.59,0-2.15,0a2.84,2.84,0,0,1-1-.19,1.67,1.67,0,0,1-.62-.39,1.84,1.84,0,0,1-.4-.62,2.91,2.91,0,0,1-.18-1c0-.56,0-.73,0-2.15s0-1.59,0-2.16a3,3,0,0,1,.18-1,1.8,1.8,0,0,1,.4-.61,1.7,1.7,0,0,1,.62-.4,2.91,2.91,0,0,1,1-.18c.49,0,.68,0,1.67,0Zm3.33.88a.64.64,0,1,0,.64.64.64.64,0,0,0-.64-.64ZM36,33.26A2.74,2.74,0,1,0,38.74,36,2.74,2.74,0,0,0,36,33.26Zm0,1A1.78,1.78,0,1,1,34.22,36,1.78,1.78,0,0,1,36,34.22Z" style="fill-rule:evenodd"/><rect x="168" width="24" height="24" style="fill:none"/><path d="M187,3H173a2,2,0,0,0-2,2V19a2,2,0,0,0,2,2h14a2,2,0,0,0,2-2V5A2,2,0,0,0,187,3ZM176.4,18.3h-2.7V10.2h2.7Zm-1.35-9.62a1.63,1.63,0,1,1,1.62-1.63A1.63,1.63,0,0,1,175.05,8.68ZM186.3,18.3h-2.7V13.53a1.35,1.35,0,0,0-2.7,0V18.3h-2.7V10.2h2.7v1.08A2.78,2.78,0,0,1,183.15,10a3.15,3.15,0,0,1,3.15,3.15Z"/><rect y="72" width="24" height="24" style="fill:none"/><path d="M13.28,84a5.64,5.64,0,1,1-5.64-5.68A5.65,5.65,0,0,1,13.28,84"/><path d="M19.47,84c0,3-1.26,5.35-2.82,5.35S13.83,87,13.83,84s1.26-5.35,2.82-5.35,2.82,2.4,2.82,5.35"/><path d="M22,84c0,2.65-.44,4.79-1,4.79S20,86.65,20,84s.44-4.79,1-4.79,1,2.14,1,4.79"/><rect x="120" y="48" width="24" height="24" style="fill:none"/><path d="M132,50a10,10,0,1,0,10,10A10,10,0,0,0,132,50Zm.07,16.27c-1.13,0-5-4.41-5-7.36a5,5,0,1,1,10,0C137,61.86,133.07,66.27,132.07,66.27Zm3-7.54a3,3,0,0,1-2.93,2.86,2.92,2.92,0,0,1-2.57-4.6,1.21,1.21,0,0,0,2.39-.22,1.15,1.15,0,0,0-.56-1,3.5,3.5,0,0,1,.74-.08A3,3,0,0,1,135,58.73Z"/><rect x="192" width="24" height="24" style="fill:none"/><path d="M204,2a10,10,0,0,0-3.64,19.32,9.61,9.61,0,0,1,0-2.88c.18-.78,1.17-5,1.17-5a3.6,3.6,0,0,1-.3-1.48c0-1.39.81-2.43,1.81-2.43A1.26,1.26,0,0,1,204.34,11a20.35,20.35,0,0,1-.83,3.33A1.45,1.45,0,0,0,205,16.1c1.78,0,3.14-1.87,3.14-4.57A3.94,3.94,0,0,0,204,7.46a4.33,4.33,0,0,0-4.52,4.34,3.83,3.83,0,0,0,.75,2.28.32.32,0,0,1,.07.29c-.08.31-.25,1-.28,1.13s-.15.22-.34.13c-1.25-.58-2-2.4-2-3.87,0-3.15,2.3-6,6.61-6a5.87,5.87,0,0,1,6.17,5.77c0,3.45-2.18,6.22-5.19,6.22a2.69,2.69,0,0,1-2.3-1.14s-.5,1.9-.62,2.37A10.75,10.75,0,0,1,201,21.55,10,10,0,1,0,204,2"/><rect x="216" width="24" height="24" style="fill:none"/><path d="M228,2a10,10,0,0,0-3.64,19.32,9.61,9.61,0,0,1,0-2.88c.18-.78,1.17-5,1.17-5a3.6,3.6,0,0,1-.3-1.48c0-1.39.81-2.43,1.81-2.43A1.26,1.26,0,0,1,228.34,11a20.35,20.35,0,0,1-.83,3.33A1.45,1.45,0,0,0,229,16.1c1.78,0,3.14-1.87,3.14-4.57A3.94,3.94,0,0,0,228,7.46a4.33,4.33,0,0,0-4.52,4.34,3.83,3.83,0,0,0,.75,2.28.32.32,0,0,1,.07.29c-.08.31-.25,1-.28,1.13s-.15.22-.34.13c-1.25-.58-2-2.4-2-3.87,0-3.15,2.3-6,6.61-6a5.87,5.87,0,0,1,6.17,5.77c0,3.45-2.18,6.22-5.19,6.22a2.69,2.69,0,0,1-2.3-1.14s-.5,1.9-.62,2.37A10.75,10.75,0,0,1,225,21.55,10,10,0,1,0,228,2"/><rect x="216" y="24" width="24" height="24" style="fill:none"/><path d="M229.59,36.53a16.17,16.17,0,0,0-1.85,1.41c0,.29,2.94,1,5.57.85v0a.81.81,0,0,1,.09-.14L237.88,34a.38.38,0,0,0,.12-.29.28.28,0,0,0,0-.09.34.34,0,0,0-.28-.21l-6.12-1.18a.85.85,0,0,1-.17-.06.25.25,0,0,1-.11-.14l-3-5.45a.31.31,0,0,0-.58,0l-3,5.45a.25.25,0,0,1-.11.14l-.16.06-6.13,1.18a.34.34,0,0,0-.28.21.31.31,0,0,0,0,.1.39.39,0,0,0,.12.28l4.47,4.58a1.27,1.27,0,0,1,.09.15.56.56,0,0,1,0,.17l-1,6.23a.4.4,0,0,0,.13.36.34.34,0,0,0,.36,0l5.67-2.73.17-.05a.27.27,0,0,1,.17.05l5.67,2.73a.34.34,0,0,0,.36,0,.4.4,0,0,0,.13-.3v-.06h0l-.78-4.75A4.11,4.11,0,0,0,235.09,39a26.4,26.4,0,0,1-7.84,1.56,20.09,20.09,0,0,1-2.9,0c-.56-.06-1-.12-1-.36s0-.44.44-.75l2.4-1.75a23.65,23.65,0,0,0,3-2.28c0-.24-1.78-.65-3.36-.65a16,16,0,0,0-2.35.14c-.4,0-.64,0-.67-.12s.16-.32.49-.47a13.15,13.15,0,0,1,1.66-.53,14.9,14.9,0,0,1,4.68-.44c1.1.11,2.7.56,2.7,1.06C232.27,34.65,230.84,35.61,229.59,36.53Z"/><rect x="120" y="24" width="24" height="24" style="fill:none"/><path d="M139,27H125a2,2,0,0,0-2,2V43a2,2,0,0,0,2,2h14a2,2,0,0,0,2-2V29A2,2,0,0,0,139,27Zm-7,2a3.54,3.54,0,1,1-3.54,3.54A3.54,3.54,0,0,1,132,29Zm3.15,9.13a5.79,5.79,0,0,1-2.45.73l.55.57,2.09,2.09a.78.78,0,0,1,0,1.13l-.09.11a.81.81,0,0,1-1.15,0c-.53-.53-1.29-1.29-2.1-2.08l-2.08,2.08a.81.81,0,0,1-1.15,0l-.1-.11a.8.8,0,0,1,0-1.13l2.1-2.09.56-.56a6,6,0,0,1-2.48-.74c-.89-.57-1.28-.91-.93-1.61.19-.4.75-.74,1.48-.17a4.63,4.63,0,0,0,5.2,0c.73-.57,1.29-.23,1.48.17C136.43,37.22,136,37.56,135.15,38.13Zm-4.9-5.59A1.75,1.75,0,1,1,132,34.29,1.74,1.74,0,0,1,130.25,32.54Z"/><rect x="24" y="72" width="24" height="24" style="fill:none"/><path d="M43.33,76H28.74A1.71,1.71,0,0,0,27,77.68v5.4a9,9,0,0,0,18,0v-5.4A1.66,1.66,0,0,0,43.35,76Zm-2.19,6.7-4.29,4a1.14,1.14,0,0,1-.82.35,1.19,1.19,0,0,1-.89-.35l-4.22-4a1.28,1.28,0,0,1,0-1.77,1.24,1.24,0,0,1,1.74,0L36,84.18l3.45-3.25a1.16,1.16,0,0,1,1.67,0A1.34,1.34,0,0,1,41.14,82.7Z"/><rect x="48" y="72" width="24" height="24" style="fill:none"/><path d="M62.48,87.39a.28.28,0,0,1,0,.4v0a4.35,4.35,0,0,1-4.94,0,.27.27,0,0,1,.38-.38A3.3,3.3,0,0,0,60,88a3.25,3.25,0,0,0,2.09-.61A.27.27,0,0,1,62.48,87.39ZM58.67,85a1,1,0,1,0-1,1A1,1,0,0,0,58.67,85Zm3.63-1a1,1,0,0,0,0,2v0h.05a1,1,0,0,0,0-2ZM70,84A10,10,0,1,1,60,74,10,10,0,0,1,70,84Zm-3.33,0a1.46,1.46,0,0,0-1.51-1.41,1.5,1.5,0,0,0-1,.41,7.15,7.15,0,0,0-3.85-1.23L61,78.65l2.14.45a1,1,0,1,0,.13-.61L60.82,78a.31.31,0,0,0-.37.24h0l-.74,3.47a7.14,7.14,0,0,0-3.9,1.23,1.46,1.46,0,0,0-2,2.13,1.77,1.77,0,0,0,.39.26,3.23,3.23,0,0,0,0,.44c0,2.24,2.61,4.06,5.83,4.06s5.83-1.82,5.83-4.06a3.23,3.23,0,0,0,0-.44A1.47,1.47,0,0,0,66.67,84Z"/><rect x="24" y="48" width="24" height="24" style="fill:none"/><path d="M37.69,50v6.37a11.11,11.11,0,0,0,6,10.07h0A10.15,10.15,0,0,0,46,59.93,10,10,0,0,0,37.69,50ZM28.35,66.44a11.11,11.11,0,0,0,6-10.07V50A10,10,0,0,0,26,59.93,10.15,10.15,0,0,0,28.35,66.44Zm2.83,2.32a9.89,9.89,0,0,0,9.57,0A10.78,10.78,0,0,1,36,62.47,10.59,10.59,0,0,1,31.18,68.76Z"/><rect x="144" y="144" width="24" height="24" style="fill:none"/><path d="M150.79,158.38a1.89,1.89,0,1,1-1.89-1.89h1.89Zm1,0a1.89,1.89,0,0,1,3.78,0v4.72a1.89,1.89,0,0,1-3.78,0Zm1.89-7.59a1.89,1.89,0,1,1,1.89-1.89v1.89Zm0,1a1.89,1.89,0,1,1,0,3.78h-4.74a1.89,1.89,0,1,1,0-3.78Zm7.58,1.89a1.89,1.89,0,1,1,1.89,1.89h-1.89Zm-1,0a1.89,1.89,0,0,1-3.78,0V148.9a1.89,1.89,0,1,1,3.78,0Zm-1.89,7.57a1.89,1.89,0,1,1-1.89,1.89v-1.89Zm0-.94a1.89,1.89,0,0,1,0-3.78h4.74a1.89,1.89,0,0,1,0,3.78Z"/><rect y="144" width="24" height="24" style="fill:none"/><path d="M18,150a8.43,8.43,0,0,1,2.36,7.55A4.94,4.94,0,0,1,21,160a5,5,0,0,1-5,5,4.94,4.94,0,0,1-2.45-.64,8.53,8.53,0,0,1-9.91-9.91A4.94,4.94,0,0,1,3,152a5,5,0,0,1,5-5,4.94,4.94,0,0,1,2.45.64A8.43,8.43,0,0,1,18,150m-6,11.16c2.87,0,4.3-1.38,4.3-3.24,0-1.19-.56-2.46-2.73-2.95l-2-.44c-.76-.17-1.62-.4-1.62-1.11s.6-1.22,1.7-1.22c2.23,0,2,1.53,3.13,1.53a1,1,0,0,0,1.08-.93c0-1.37-2.19-2.4-4.05-2.4s-4.16.86-4.16,3.14c0,1.1.39,2.27,2.55,2.81l2.69.68c.81.2,1,.65,1,1.07,0,.68-.68,1.35-1.91,1.35-2.41,0-2.08-1.85-3.37-1.85a1,1,0,0,0-1,1C7.67,159.68,9,161.16,12,161.16Z"/><rect x="216" y="120" width="24" height="24" style="fill:none"/><path d="M228,122a10,10,0,1,0,10,10A10,10,0,0,0,228,122Zm4.64,6.8c-.16,1.58-.81,5.42-1.14,7.19-.14.75-.41,1-.68,1-.58,0-1-.39-1.59-.76-.88-.57-1.37-.93-2.23-1.5s-.34-1,.22-1.59c.15-.15,2.7-2.48,2.75-2.69a.19.19,0,0,0,0-.18.26.26,0,0,0-.21,0c-.09,0-1.49.95-4.22,2.79a1.83,1.83,0,0,1-1.08.4,7,7,0,0,1-1.56-.37c-.62-.2-1.12-.31-1.08-.65,0-.18.27-.37.75-.56,2.91-1.27,4.86-2.1,5.83-2.51,2.78-1.15,3.35-1.35,3.73-1.36a.67.67,0,0,1,.39.12.4.4,0,0,1,.14.27A2.12,2.12,0,0,1,232.64,128.8Z"/><rect x="216" y="96" width="24" height="24" style="fill:none"/><path d="M234.86,99H221.14a2.13,2.13,0,0,0-2.14,2.13v13.71a2.13,2.13,0,0,0,2.14,2.14h13.72a2.12,2.12,0,0,0,1.52-.63,2.14,2.14,0,0,0,.62-1.51V101.14A2.13,2.13,0,0,0,234.86,99ZM226.76,112a.71.71,0,0,1-.21.51.69.69,0,0,1-.51.2h-3a.71.71,0,0,1-.71-.71V103a.72.72,0,0,1,.71-.72h3a.72.72,0,0,1,.71.72Zm6.92-4.1a.72.72,0,0,1-.72.72h-3a.71.71,0,0,1-.71-.72V103a.72.72,0,0,1,.71-.72h3a.71.71,0,0,1,.71.72Z" style="fill-rule:evenodd"/><rect x="72" width="24" height="24" style="fill:none"/><path d="M84,2A10,10,0,1,1,74,12,10,10,0,0,1,84,2Zm2.67,5.79a2.41,2.41,0,0,0-2.43,2.39,2,2,0,0,0,.07.55,7,7,0,0,1-5-2.5A2.32,2.32,0,0,0,79,9.43a2.4,2.4,0,0,0,1.08,2,2.41,2.41,0,0,1-1.1-.3v0h0a2.4,2.4,0,0,0,2,2.34,2.2,2.2,0,0,1-.64.09,2.49,2.49,0,0,1-.46-.05,2.42,2.42,0,0,0,2.27,1.66,4.94,4.94,0,0,1-3,1,3.86,3.86,0,0,1-.58,0,6.93,6.93,0,0,0,10.64-5.72c0-.11,0-.21,0-.31a5.13,5.13,0,0,0,1.22-1.24,5.09,5.09,0,0,1-1.4.38A2.43,2.43,0,0,0,90,8a4.85,4.85,0,0,1-1.54.58A2.48,2.48,0,0,0,86.67,7.79Z"/><rect x="192" y="120" width="24" height="24" style="fill:none"/><path d="M211,125.36c-.47-.43-2.38-1.82-6.62-1.84,0,0-5-.3-7.45,1.94-1.36,1.36-1.84,3.35-1.89,5.81s-.11,7.09,4.34,8.34h0v1.91s0,.78.48.93,1-.39,1.57-1c.32-.35.77-.86,1.1-1.25a17.39,17.39,0,0,0,5.66-.41,5.59,5.59,0,0,0,4.66-5.27C213.4,129.73,212.53,126.72,211,125.36Zm.51,8.79h0c-.47,3.86-3.3,4.1-3.82,4.27a15.85,15.85,0,0,1-4.86.41s-1.93,2.33-2.53,2.93a.31.31,0,0,1-.28.11c-.1,0-.13-.14-.13-.32s0-3.18,0-3.18c-3.77-1-3.55-5-3.51-7s.43-3.74,1.58-4.88c2.06-1.87,6.32-1.59,6.32-1.59,3.59,0,5.31,1.1,5.71,1.46C211.3,127.46,212,130.17,211.48,134.15Zm-5.15-3a.24.24,0,0,1-.23.26h0a.25.25,0,0,1-.24-.23,1.14,1.14,0,0,0-1.2-1.26.24.24,0,0,1-.23-.26.25.25,0,0,1,.25-.22A1.61,1.61,0,0,1,206.33,131.15Zm.75.42a2.76,2.76,0,0,0-.71-2,3,3,0,0,0-2.09-.91.24.24,0,0,1-.23-.26.24.24,0,0,1,.26-.22,3.5,3.5,0,0,1,2.41,1.07,3.22,3.22,0,0,1,.84,2.36.24.24,0,0,1-.24.24h0A.25.25,0,0,1,207.08,131.57Zm.31-3.27a5.15,5.15,0,0,1,1.44,3.77.24.24,0,0,1-.24.24h0a.24.24,0,0,1-.24-.24,4.58,4.58,0,0,0-1.3-3.42,4.42,4.42,0,0,0-3.18-1.26.24.24,0,0,1-.24-.24.24.24,0,0,1,.24-.24h0A4.93,4.93,0,0,1,207.39,128.3Zm1,7.41h0a3.83,3.83,0,0,1-.74.91h0a1.45,1.45,0,0,1-.75.36h-.1a1.13,1.13,0,0,1-.32-.05h0a11.22,11.22,0,0,1-2.06-1,11.75,11.75,0,0,1-1.73-1.14,8.37,8.37,0,0,1-.78-.69l0,0,0,0,0,0,0,0a8.37,8.37,0,0,1-.69-.78,12.3,12.3,0,0,1-1.14-1.73,11.22,11.22,0,0,1-1-2.06h0a1.13,1.13,0,0,1,0-.32.45.45,0,0,1,0-.11,1.52,1.52,0,0,1,.36-.75h0a3.83,3.83,0,0,1,.91-.74h0a.68.68,0,0,1,.89.14s.46.55.65.82a10.17,10.17,0,0,1,.57.88.79.79,0,0,1-.14,1l-.45.35a.66.66,0,0,0-.19.52,4.64,4.64,0,0,0,3.13,3.13.64.64,0,0,0,.51-.19l.36-.45a.79.79,0,0,1,1-.14c.3.18.59.36.88.57s.81.65.82.65A.68.68,0,0,1,208.41,135.71Z"/><rect x="48" y="24" width="24" height="24" style="fill:none"/><path d="M52.27,28.27C51,29.53,51,31.57,51,35.64v.72c0,4.07,0,6.11,1.27,7.37S55.57,45,59.64,45h.72c4.07,0,6.11,0,7.37-1.27S69,40.43,69,36.36v-.72c0-4.07,0-6.11-1.27-7.37S64.43,27,60.36,27h-.72C55.57,27,53.53,27,52.27,28.27ZM54,32.48c.1,4.68,2.43,7.49,6.54,7.49h.23V37.29A3.68,3.68,0,0,1,63.91,40h2.14A6,6,0,0,0,63,36.21a5.68,5.68,0,0,0,2.63-3.73H63.66c-.42,1.48-1.66,2.83-2.85,3v-3H58.87v5.19c-1.2-.3-2.71-1.76-2.78-5.19Z" style="fill-rule:evenodd"/><rect x="72" y="24" width="24" height="24" style="fill:none"/><path d="M76.27,28.27C75,29.53,75,31.57,75,35.64v.72c0,4.07,0,6.11,1.27,7.37S79.57,45,83.64,45h.72c4.07,0,6.11,0,7.37-1.27S93,40.43,93,36.36v-.72c0-4.07,0-6.11-1.27-7.37S88.43,27,84.36,27h-.72C79.57,27,77.53,27,76.27,28.27ZM78,32.48c.1,4.68,2.43,7.49,6.54,7.49h.23V37.29A3.68,3.68,0,0,1,87.91,40h2.14A6,6,0,0,0,87,36.21a5.68,5.68,0,0,0,2.63-3.73H87.66c-.42,1.48-1.66,2.83-2.85,3v-3H82.87v5.19c-1.2-.3-2.71-1.76-2.78-5.19Z" style="fill-rule:evenodd"/><rect x="120" y="120" width="24" height="24" style="fill:none"/><path d="M132,122a10,10,0,1,0,10,10A10,10,0,0,0,132,122Zm-9,10a9,9,0,0,1,.78-3.66l4.29,11.75A9,9,0,0,1,123,132Zm9,9a8.92,8.92,0,0,1-2.54-.37l2.7-7.83,2.76,7.57a.75.75,0,0,0,.07.12A9,9,0,0,1,132,141Zm1.24-13.21c.54,0,1-.08,1-.08a.37.37,0,0,0-.06-.74s-1.46.11-2.4.11-2.36-.11-2.36-.11a.37.37,0,0,0-.06.74s.46.06.94.08l1.4,3.84-2,5.9-3.28-9.74c.54,0,1-.08,1-.08a.37.37,0,0,0-.06-.74s-1.45.11-2.39.11h-.58a9,9,0,0,1,13.58-1.69H138a1.56,1.56,0,0,0-1.51,1.6,4.19,4.19,0,0,0,.89,2.11,4.73,4.73,0,0,1,.74,2.48,11.1,11.1,0,0,1-.68,2.9l-.9,3Zm6.65-.09a9,9,0,0,1-3.37,12.08l2.75-7.94a8.53,8.53,0,0,0,.68-3.22A6.56,6.56,0,0,0,139.89,127.69Z"/><rect x="168" y="24" width="24" height="24" style="fill:none"/><path d="M172.8,27a1.79,1.79,0,0,0-1.8,1.8V43.2a1.79,1.79,0,0,0,1.8,1.8h14.4a1.79,1.79,0,0,0,1.8-1.8V28.8a1.79,1.79,0,0,0-1.8-1.8m-3.13,2h2a.26.26,0,0,1,.26.13.29.29,0,0,1,0,.31l-4.47,7.92,2.85,5.2a.29.29,0,0,1-.25.44h-2a.62.62,0,0,1-.56-.39L179,37.35l4.49-8a.59.59,0,0,1,.54-.39m-9,2.76h2a.63.63,0,0,1,.57.39l1.39,2.42c-.09.14-2.18,3.85-2.18,3.85a.62.62,0,0,1-.56.39h-2a.28.28,0,0,1-.26-.14.41.41,0,0,1,0-.31l2.14-3.79-1.36-2.37a.31.31,0,0,1,0-.31A.32.32,0,0,1,175.09,31.76Z"/><rect x="48" y="144" width="24" height="24" style="fill:none"/><path d="M70,158.41c0-2.77-2.69-5-6-5s-6,2.27-6,5,2.69,5.05,6,5.05a6.24,6.24,0,0,0,1.81-.24.82.82,0,0,1,.51.06l1.48.8a.13.13,0,0,0,.19-.15l-.3-1.18a.45.45,0,0,1,.19-.48A4.78,4.78,0,0,0,70,158.41Zm-8.14-.65a.83.83,0,1,1,.83-.83A.83.83,0,0,1,61.86,157.76Zm4,0a.83.83,0,1,1,.82-.83A.84.84,0,0,1,65.91,157.76Z"/><path d="M57.53,158.43c0-3.09,2.93-5.59,6.55-5.59h.27c-.58-2.8-3.55-4.94-7.11-4.94-4,0-7.24,2.67-7.24,6a5.64,5.64,0,0,0,2.58,4.57.34.34,0,0,1,.13.33l-.55,1.94a.16.16,0,0,0,.24.18l2.13-1.28a.54.54,0,0,1,.48-.05,9.08,9.08,0,0,0,2.23.29,4.52,4.52,0,0,0,.51,0,4.52,4.52,0,0,1-.22-1.41Zm2.14-7.36a1,1,0,1,1-1,1,1,1,0,0,1,1-1ZM54.81,153a1,1,0,1,1,1-1A1,1,0,0,1,54.81,153Z"/><rect y="48" width="24" height="24" style="fill:none"/><path d="M19,51H5a2,2,0,0,0-2,2V67a2,2,0,0,0,2,2H19a2,2,0,0,0,2-2V53A2,2,0,0,0,19,51Zm-3.4,8.1H12.9v3.51c0,.66.13,1,1,1H15.6v2.7s-.93.09-1.89.09c-2.38,0-3.51-1.44-3.51-3.06V59.1H8.4V56.58c2.17-.18,2.36-1.84,2.52-2.88h2v2.7h2.7Z"/><rect x="72" y="48" width="24" height="24" style="fill:none"/><path d="M93,55.81c-.08,1.75-1.3,4.16-3.67,7.21S84.8,67.8,83.11,67.8c-1,0-1.94-1-2.66-2.91-.49-1.78-1-3.56-1.46-5.34-.54-1.94-1.11-2.91-1.73-2.91a5.23,5.23,0,0,0-1.41.85L75,56.4l2.63-2.35a5.85,5.85,0,0,1,2.66-1.62c1.4-.14,2.27.82,2.59,2.88s.59,3.59.73,4.13c.4,1.84.85,2.76,1.33,2.76s.94-.6,1.7-1.79a7,7,0,0,0,1.21-2.72c.11-1-.3-1.55-1.21-1.55a3.28,3.28,0,0,0-1.33.3q1.32-4.36,5.07-4.24Q93.16,52.29,93,55.81Z"/><rect x="144" y="96" width="24" height="24" style="fill:none"/><path d="M163,107.12l-1.47-.32c-1-.23-1.31-.64-1.31-1.33s.62-1.24,1.63-1.24,1.7.41,1.79,1.4l2.29-.28c-.18-2.06-1.6-2.91-3.94-2.91-2.06,0-4.08.78-4.08,3.28,0,1.56.76,2.54,2.66,3l1.56.37c1.16.27,1.55.75,1.55,1.42,0,.85-.82,1.19-2.38,1.19a3.62,3.62,0,0,1-3.82-2.89l-.76-2.29c-1-3-2.5-4.08-5.55-4.08-3.36,0-5.15,2.14-5.15,5.75s1.79,5.37,5,5.37a5.62,5.62,0,0,0,3.83-1.22l-.73-2a4.36,4.36,0,0,1-3,1.33c-1.58,0-2.7-1.38-2.7-3.58,0-2.81,1.42-3.82,2.81-3.82,2,0,2.66,1.3,3.21,3l.73,2.29c.74,2.22,2.11,4,6.07,4,2.85,0,4.77-.87,4.77-3.17C166,108.54,165,107.58,163,107.12Z"/><rect x="72" y="144" width="24" height="24" style="fill:none"/><path d="M89.75,147H78.29A3.29,3.29,0,0,0,75,150.26v11.46A3.28,3.28,0,0,0,78.26,165H89.72A3.27,3.27,0,0,0,93,161.74V150.28A3.26,3.26,0,0,0,89.75,147Zm-.63,11.48h0A21.3,21.3,0,0,1,84,162.29c-.7.29-.6-.19-.57-.36s.09-.56.09-.56a1.3,1.3,0,0,0,0-.59c-.07-.18-.36-.28-.58-.32-3.15-.42-5.48-2.62-5.48-5.25,0-2.93,2.94-5.32,6.56-5.32s6.55,2.39,6.55,5.32A4.74,4.74,0,0,1,89.12,158.48Zm-6.48-4.69h-.46a.12.12,0,0,0-.12.13v2.85a.12.12,0,0,0,.12.13h.46a.13.13,0,0,0,.13-.13v-2.85a.13.13,0,0,0-.13-.13m3.17,0h-.46a.13.13,0,0,0-.13.13v1.7l-1.31-1.77h-.56a.13.13,0,0,0-.13.13v2.85a.13.13,0,0,0,.13.13h.46a.12.12,0,0,0,.12-.13v-1.69l1.31,1.77,0,0h.53a.13.13,0,0,0,.13-.13v-2.85a.13.13,0,0,0-.13-.13m-4.27,2.4H80.29v-2.27a.13.13,0,0,0-.13-.13H79.7a.13.13,0,0,0-.13.13v2.85h0a.13.13,0,0,0,0,.09h0a.14.14,0,0,0,.09,0h1.84a.12.12,0,0,0,.12-.13v-.46a.12.12,0,0,0-.12-.12m6.81-1.68a.12.12,0,0,0,.12-.13v-.46a.12.12,0,0,0-.12-.13H86.51a.15.15,0,0,0-.09,0h0a.15.15,0,0,0,0,.09h0v2.85h0a.13.13,0,0,0,0,.09h0a.14.14,0,0,0,.09,0h1.84a.12.12,0,0,0,.12-.13v-.46a.12.12,0,0,0-.12-.12H87.1v-.49h1.25a.12.12,0,0,0,.12-.12v-.46a.12.12,0,0,0-.12-.13H87.1v-.48Z"/></svg>